#!OML:ASF F:\VICON\USERDATA\INSTALL\rory3\rory3.ASF
:FULLY-SPECIFIED
:DEGREES
332
root 2.96076 15.3871 -4.56317 36.0015 -29.9241 -0.00272259
lowerback -2.72096 0.087495 -11.8692
upperback -13.2372 -1.20896 -5.30366
thorax -13.0415 0.245682 0.824826
lowerneck -11.2866 6.73318 6.10263
upperneck 19.2434 7.18971 4.11354
head 7.90727 4.22022 1.08681
rclavicle -5.1684e-015 5.725e-014
rhumerus 157.878 -24.7398 -168.785
rradius 11.9581
rwrist 104.355
rhand -10.9322 4.25717
rfingers 7.12502
rthumb 15.0858 -25.1731
lclavicle -5.1684e-015 5.725e-014
lhumerus 5.68309 11.6455 5.35408
lradius 20.0487
lwrist -36.5424
lhand 0.605356 31.9799
lfingers 7.12502
lthumb 26.1701 60.1961
rfemur 164.892 -182.011 -151.934
rtibia 34.0411
rfoot 8.50514 -48.5488
rtoes 44.1257
lfemur -71.1835 13.277 -42.3064
ltibia 61.6566
lfoot -38.636 18.3898
ltoes 6.19495
333
root 2.96661 15.3858 -4.53791 36.1869 -29.7647 -0.214813
lowerback -2.55919 0.0254971 -11.7095
upperback -13.3194 -1.30315 -5.11021
thorax -13.2208 0.206487 0.956426
lowerneck -10.9002 6.76679 6.32243
upperneck 18.818 7.3212 3.7029
head 7.72297 4.24975 0.905906
rclavicle -3.49861e-014 1.27222e-014
rhumerus 157.493 -25.6469 -168.259
rradius 12.0375
rwrist 103.389
rhand -10.7265 3.67388
rfingers 7.12502
rthumb 15.284 -25.7414
lclavicle -3.49861e-014 1.27222e-014
lhumerus 5.90421 11.6301 5.88485
lradius 19.8201
lwrist -37.963
lhand 0.134785 29.7517
lfingers 7.12502
lthumb 25.7195 58.0339
rfemur 165.21 -181.791 -151.893
rtibia 33.6203
rfoot 8.13571 -48.3842
rtoes 44.6566
lfemur -71.4144 13.0587 -42.0555
ltibia 61.9305
lfoot -38.6073 19.0512
ltoes 5.71788
334
root 2.97738 15.3785 -4.51314 36.6737 -29.1071 -0.956498
lowerback -2.36043 -0.0547 -10.8297
upperback -13.391 -1.36795 -4.7668
thorax -13.3818 0.113392 0.865357
lowerneck -10.4558 6.72745 6.51852
upperneck 18.1311 7.38188 3.22166
head 7.44425 4.23407 0.690899
rclavicle 3.3197e-014 -4.77083e-015
rhumerus 156.969 -26.9169 -167.486
rradius 12.2285
rwrist 102.034
rhand -10.2106 3.19181
rfingers 7.12502
rthumb 15.7808 -26.1849
lclavicle 3.3197e-014 -4.77083e-015
lhumerus 6.33348 10.6541 6.36902
lradius 20.1655
lwrist -36.397
lhand 1.11645 31.5559
lfingers 7.12502
lthumb 26.6593 59.6986
rfemur 165.49 -180.411 -151.193
rtibia 33.1417
rfoot 13.5596 -46.4546
rtoes 42.219
lfemur -71.8561 12.5886 -41.0788
ltibia 62.3791
lfoot -38.5136 20.1231
ltoes 4.69327
335
root 2.98662 15.3716 -4.49143 36.9867 -28.8252 -1.27485
lowerback -2.28124 -0.118222 -10.4761
upperback -13.3891 -1.42663 -4.58815
thorax -13.4042 0.0609805 0.877856
lowerneck -10.4611 6.76408 6.58773
upperneck 17.7111 7.48362 2.94663
head 7.32174 4.25561 0.591642
rclavicle 4.01545e-014 4.13472e-014
rhumerus 156.422 -28.2554 -166.684
rradius 12.5784
rwrist 100.457
rhand -9.30987 2.9918
rfingers 7.12502
rthumb 16.6481 -26.3142
lclavicle 4.01545e-014 4.13472e-014
lhumerus 7.05084 10.0317 6.87598
lradius 20.5527
lwrist -34.2423
lhand 2.03023 34.4526
lfingers 7.12502
lthumb 27.5335 62.4592
rfemur 165.972 -181.504 -150.918
rtibia 32.6132
rfoot 11.2753 -46.5609
rtoes 42.9353
lfemur -72.2909 12.1275 -40.6324
ltibia 62.7881
lfoot -38.3755 21.1788
ltoes 4.02411
336
root 2.99175 15.3689 -4.47438 37.1603 -28.9102 -1.26609
lowerback -2.0749 -0.156339 -10.7228
upperback -13.4936 -1.52473 -4.46683
thorax -13.6574 0.0619588 1.14982
lowerneck -11.5522 6.98649 6.25297
upperneck 18.6107 7.64683 3.42653
head 7.78019 4.37371 0.881391
rclavicle -5.76476e-015 1.59028e-015
rhumerus 156.107 -28.5989 -166.214
rradius 12.8295
rwrist 100.226
rhand -8.84458 2.79077
rfingers 7.12502
rthumb 17.096 -26.477
lclavicle -5.76476e-015 1.59028e-015
lhumerus 7.45884 10.6309 7.26453
lradius 20.2634
lwrist -35.2511
lhand 1.67251 32.6366
lfingers 7.12502
lthumb 27.1913 60.6972
rfemur 166.328 -182.183 -151.11
rtibia 32.2478
rfoot 11.5829 -45.4204
rtoes 42.175
lfemur -72.6412 11.7806 -40.6192
ltibia 63.1419
lfoot -38.5036 21.8632
ltoes 4.01801
337
root 3.00094 15.3575 -4.45665 37.6261 -28.8018 -1.63683
lowerback -1.93057 -0.205121 -10.5822
upperback -13.6765 -1.59488 -4.16741
thorax -13.9541 0.0506945 1.40603
lowerneck -10.3271 6.94671 6.6782
upperneck 17.0279 7.83365 2.47977
head 7.10259 4.37687 0.441125
rclavicle -8.34896e-014 6.52014e-014
rhumerus 155.556 -29.4092 -165.347
rradius 12.8511
rwrist 99.631
rhand -8.60969 2.46932
rfingers 7.12502
rthumb 17.3221 -26.7787
lclavicle -8.34896e-014 6.52014e-014
lhumerus 7.54794 10.3907 7.41659
lradius 20.2843
lwrist -35.2589
lhand 1.81973 32.0333
lfingers 7.12502
lthumb 27.3322 60.0718
rfemur 166.537 -182.115 -150.946
rtibia 31.9883
rfoot 14.8092 -42.7799
rtoes 39.4197
lfemur -73.1165 11.3995 -40.208
ltibia 63.4746
lfoot -38.9006 22.1022
ltoes 5.6963
338
root 3.01792 15.3265 -4.44567 38.3629 -28.4679 -2.44046
lowerback -1.97583 -0.275135 -9.867
upperback -13.7885 -1.6097 -3.77245
thorax -14.0278 -0.00275848 1.45549
lowerneck -9.9722 7.04207 6.64591
upperneck 16.2603 8.07598 2.14323
head 6.8076 4.4504 0.3302
rclavicle -2.28602e-014 9.54166e-015
rhumerus 154.867 -30.3571 -164.28
rradius 12.5673
rwrist 98.7968
rhand -8.31659 2.0419
rfingers 7.12502
rthumb 17.6042 -27.1811
lclavicle -2.28602e-014 9.54166e-015
lhumerus 7.54324 9.57111 7.19577
lradius 20.4193
lwrist -34.4338
lhand 1.82827 32.3373
lfingers 7.12502
lthumb 27.3403 60.3745
rfemur 166.663 -181.824 -150.362
rtibia 31.8704
rfoot 17.2801 -39.6135
rtoes 36.6086
lfemur -73.7544 10.9374 -39.3089
ltibia 63.8334
lfoot -39.3583 21.9547
ltoes 8.81125
339
root 3.03226 15.3239 -4.43345 38.9135 -28.4146 -2.93383
lowerback -2.02277 -0.34651 -9.53941
upperback -13.7755 -1.65528 -3.54526
thorax -13.9591 -0.0475715 1.53507
lowerneck -10.0124 7.2286 6.55911
upperneck 15.6899 8.35757 2.12148
head 6.63268 4.57051 0.351104
rclavicle -4.59193e-014 6.36111e-015
rhumerus 154.25 -31.3438 -163.295
rradius 12.3388
rwrist 98.005
rhand -7.98629 1.58872
rfingers 7.12502
rthumb 17.922 -27.6055
lclavicle -4.59193e-014 6.36111e-015
lhumerus 7.71099 9.16797 6.81461
lradius 20.6181
lwrist -33.6225
lhand 1.83196 32.7984
lfingers 7.12502
lthumb 27.3439 60.835
rfemur 166.875 -182.101 -150.194
rtibia 31.7785
rfoot 18.0807 -37.7159
rtoes 34.7041
lfemur -74.1759 10.602 -38.7858
ltibia 63.9683
lfoot -39.6766 21.9652
ltoes 10.9952
340
root 3.04312 15.3386 -4.41782 39.3142 -28.7177 -3.04188
lowerback -1.96935 -0.356408 -9.73705
upperback -13.8671 -1.69068 -3.45246
thorax -14.106 -0.0278999 1.74692
lowerneck -9.97138 7.33881 6.35796
upperneck 15.1247 8.54197 2.21016
head 6.43359 4.64706 0.410979
rclavicle 2.14687e-014 7.95139e-015
rhumerus 153.686 -32.199 -162.359
rradius 12.2451
rwrist 97.4501
rhand -7.87236 1.25637
rfingers 7.12502
rthumb 18.0316 -27.9278
lclavicle 2.14687e-014 7.95139e-015
lhumerus 7.986 8.80691 6.55388
lradius 21.1067
lwrist -32.3209
lhand 2.61147 34.7126
lfingers 7.12502
lthumb 28.0892 62.6294
rfemur 167.122 -182.659 -150.535
rtibia 31.7559
rfoot 17.2693 -36.6806
rtoes 34.585
lfemur -74.4703 10.367 -38.748
ltibia 63.9108
lfoot -39.8014 22.33
ltoes 11.9421
341
root 3.05403 15.3619 -4.39995 39.8473 -29.1966 -3.25027
lowerback -1.88389 -0.320299 -9.97103
upperback -14.084 -1.68403 -3.33749
thorax -14.4382 0.0274845 1.99584
lowerneck -10.0988 7.37422 6.19165
upperneck 14.7938 8.61035 2.24167
head 6.34071 4.66917 0.449139
rclavicle 2.62396e-014 -1.43125e-014
rhumerus 152.76 -33.6282 -161.082
rradius 12.081
rwrist 96.1569
rhand -7.96235 0.569777
rfingers 7.12502
rthumb 17.9451 -28.6223
lclavicle 2.62396e-014 -1.43125e-014
lhumerus 8.43902 9.8247 6.57333
lradius 21.399
lwrist -31.9284
lhand 4.29007 37.5574
lfingers 7.12502
lthumb 29.6926 65.1999
rfemur 167.432 -183.009 -150.971
rtibia 31.6498
rfoot 15.719 -36.2817
rtoes 35.3474
lfemur -74.7661 10.2768 -38.7352
ltibia 63.6801
lfoot -39.9869 22.5928
ltoes 13.0105
342
root 3.06391 15.3858 -4.38138 40.5987 -29.6605 -3.76784
lowerback -2.08861 -0.283185 -9.93849
upperback -14.1545 -1.5981 -3.19282
thorax -14.4015 0.0754339 2.12808
lowerneck -10.4191 7.48177 6.10892
upperneck 14.3007 8.7714 2.14788
head 6.24018 4.72901 0.44769
rclavicle -2.06736e-014 4.13472e-014
rhumerus 151.942 -34.6641 -159.942
rradius 11.8534
rwrist 95.3507
rhand -8.02497 0.0766758
rfingers 7.12502
rthumb 17.8848 -29.1209
lclavicle -2.06736e-014 4.13472e-014
lhumerus 7.70387 8.27002 4.99334
lradius 20.0054
lwrist -36.5392
lhand -0.4834 28.286
lfingers 7.12502
lthumb 25.1273 56.6524
rfemur 167.837 -183.258 -151.168
rtibia 31.5737
rfoot 14.3299 -36.7035
rtoes 36.0836
lfemur -75.2173 10.3598 -38.5065
ltibia 63.4135
lfoot -40.0797 22.943
ltoes 13.1754
343
root 3.0702 15.4308 -4.35293 41.495 -30.2289 -4.35139
lowerback -2.53292 -0.192277 -9.86071
upperback -14.1751 -1.41002 -3.15402
thorax -14.1646 0.1494 2.10843
lowerneck -10.9736 7.69868 6.2464
upperneck 13.9646 9.02622 2.02269
head 6.24411 4.84545 0.426113
rclavicle -7.51406e-014 3.18055e-014
rhumerus 151.56 -35.3472 -159.09
rradius 11.6375
rwrist 95.161
rhand -7.59706 -0.0135585
rfingers 7.12502
rthumb 18.2965 -29.1731
lclavicle -7.51406e-014 3.18055e-014
lhumerus 8.45186 9.38231 4.87645
lradius 20.5931
lwrist -34.3288
lhand 1.20319 33.6613
lfingers 7.12502
lthumb 26.7423 61.7913
rfemur 168.266 -183.296 -151.397
rtibia 31.4506
rfoot 15.1672 -37.306
rtoes 34.6232
lfemur -75.6677 10.592 -38.3603
ltibia 63.0024
lfoot -39.8903 23.4731
ltoes 12.5703
344
root 3.07835 15.4759 -4.32926 42.4346 -30.9481 -5.01871
lowerback -2.81419 0.0059409 -9.87269
upperback -14.3189 -1.1167 -3.1143
thorax -14.2041 0.298633 2.12679
lowerneck -11.7632 7.95413 6.31774
upperneck 14.1334 9.29334 2.04314
head 6.43996 4.9821 0.485895
rclavicle 7.11649e-014 3.18055e-014
rhumerus 151.187 -36.4189 -157.906
rradius 11.2555
rwrist 94.5456
rhand -7.255 -0.217435
rfingers 7.12502
rthumb 18.6256 -29.3457
lclavicle 7.11649e-014 3.18055e-014
lhumerus 8.5303 10.2317 4.29086
lradius 20.099
lwrist -36.4552
lhand 0.0267132 31.3707
lfingers 7.12502
lthumb 25.616 59.6678
rfemur 168.856 -183.677 -151.664
rtibia 31.2389
rfoot 16.2706 -38.54
rtoes 33.5212
lfemur -76.1721 10.9532 -38.2451
ltibia 62.5832
lfoot -39.7078 24.0175
ltoes 11.7883
